<svg xmlns="http://www.w3.org/2000/svg" xmlns:xlink="http://www.w3.org/1999/xlink" width="98.07" height="48.12" viewBox="0 0 98.07 48.12"><defs><linearGradient id="a" y1="0.5" x2="1" y2="0.5" gradientUnits="objectBoundingBox"><stop offset="0" stop-color="#fff"/><stop offset="0.15" stop-color="#a8c8e4"/><stop offset="0.36" stop-color="#307bbe"/><stop offset="0.45" stop-color="#005db0"/></linearGradient></defs><path d="M92.138,164.866a12.048,12.048,0,0,1-6.4-1.762l2.619-12.1a12.709,12.709,0,0,0,1.562,1.152,8.823,8.823,0,0,0,4.651,1.266,11.478,11.478,0,0,0,1.895-.162,16.056,16.056,0,0,0,6.326-2.682,52.275,52.275,0,0,0,6.673-5.774c1.389-1.339,2.635-2.525,3.757-3.55a35.954,35.954,0,0,1,6.561-4.921,20.107,20.107,0,0,1,6.61-2.43,14.028,14.028,0,0,1,2.3-.2,11.872,11.872,0,0,1,8.694,3.791l-2.874,13.22a12.288,12.288,0,0,0-.835-1.324,10.214,10.214,0,0,0-4.243-3.422,8.212,8.212,0,0,0-3.331-.686,10.022,10.022,0,0,0-1.686.148,18,18,0,0,0-7.462,3.47,70.36,70.36,0,0,0-6.563,5.68,88.092,88.092,0,0,1-7.083,6.232,20.663,20.663,0,0,1-8.693,3.835,15.272,15.272,0,0,1-2.484.213m46.152,0a12.048,12.048,0,0,1-6.4-1.762l2.619-12.1a12.709,12.709,0,0,0,1.562,1.152,8.82,8.82,0,0,0,4.651,1.266,11.509,11.509,0,0,0,1.9-.162,16.056,16.056,0,0,0,6.326-2.682,52.274,52.274,0,0,0,6.673-5.774c1.389-1.339,2.635-2.525,3.757-3.55a35.9,35.9,0,0,1,6.561-4.921,20.107,20.107,0,0,1,6.61-2.43,14.028,14.028,0,0,1,2.3-.2,11.872,11.872,0,0,1,8.694,3.791l-2.874,13.22a12.52,12.52,0,0,0-.835-1.324,10.223,10.223,0,0,0-4.243-3.422,8.207,8.207,0,0,0-3.331-.686,10.022,10.022,0,0,0-1.686.148,18,18,0,0,0-7.462,3.47,70.362,70.362,0,0,0-6.563,5.68,88.093,88.093,0,0,1-7.083,6.232,20.663,20.663,0,0,1-8.693,3.835,15.286,15.286,0,0,1-2.484.213" transform="translate(-85.74 -133.71)" fill="url(#a)"/><path d="M109.4,418.4c-.051-.925-.112-2.068-.112-2.893h-.019c-.24.778-.507,1.63-.845,2.547l-1.183,3.248h-.656l-1.094-3.19c-.316-.947-.575-1.811-.766-2.606H104.7c-.021.836-.071,1.958-.129,2.963l-.179,2.871h-.825l.467-6.7h1.1l1.144,3.242c.278.825.5,1.567.676,2.264h.019c.179-.673.417-1.42.714-2.264l1.194-3.242h1.1l.417,6.7h-.854l-.157-2.94Z" transform="translate(-100.949 -373.347)" fill="#3a392c"/><path d="M162.108,415.642a.519.519,0,0,1-.528-.534.528.528,0,0,1,.547-.548.541.541,0,1,1-.01,1.082h-.009Zm-.417.816h.875v4.811h-.875Z" transform="translate(-150.433 -373.279)" fill="#3a392c"/><path d="M182.956,431.482a3.454,3.454,0,0,1-1.38.275,2.284,2.284,0,0,1-2.4-2.455,2.455,2.455,0,0,1,2.584-2.562,2.722,2.722,0,0,1,1.214.257l-.2.666a2.11,2.11,0,0,0-1.014-.231,1.672,1.672,0,0,0-1.7,1.821,1.651,1.651,0,0,0,1.671,1.8,2.466,2.466,0,0,0,1.073-.232l.148.658Z" transform="translate(-165.446 -383.669)" fill="#3a392c"/><path d="M214.99,428.368c0-.567-.012-1.052-.04-1.5h.764l.04.947h.029a1.453,1.453,0,0,1,1.342-1.052l.237.018v.825l-.3-.018a1.226,1.226,0,0,0-1.173,1.111l-.029.409v2.572h-.875v-3.309Z" transform="translate(-195.958 -383.686)" fill="#3a392c"/><path d="M240.646,431.777a2.291,2.291,0,0,1-2.306-2.472,2.353,2.353,0,0,1,2.384-2.555,2.305,2.305,0,0,1,2.315,2.462,2.356,2.356,0,0,1-2.386,2.565h-.009Zm.04-.656c.833,0,1.46-.783,1.46-1.88,0-.813-.407-1.836-1.442-1.836s-1.47.954-1.47,1.87c0,1.052.6,1.848,1.442,1.848h.01Z" transform="translate(-215.91 -383.677)" fill="#3a392c"/><path d="M278.4,427.48l.645,2.437c.131.536.259,1.045.35,1.537h.028c.11-.487.269-1,.429-1.527l.783-2.447h.736l.744,2.406c.181.567.319,1.082.428,1.568h.031a14.589,14.589,0,0,1,.366-1.557l.686-2.418h.864l-1.551,4.811h-.794L281.405,430c-.169-.548-.309-1.023-.426-1.59h-.021a14.042,14.042,0,0,1-.437,1.6l-.775,2.286h-.8L277.5,427.48Z" transform="translate(-249.314 -384.3)" fill="#3a392c"/><path d="M335.566,430.524a8.037,8.037,0,0,0,.069,1.152h-.783l-.081-.6h-.028a1.784,1.784,0,0,1-1.471.714,1.37,1.37,0,0,1-1.471-1.38c0-1.163,1.035-1.8,2.893-1.787v-.1A.99.99,0,0,0,333.6,427.4a2.326,2.326,0,0,0-1.263.357l-.2-.585a3.122,3.122,0,0,1,1.59-.416c1.482,0,1.837,1,1.837,1.97v1.8Zm-.855-1.3c-.952-.019-2.037.15-2.037,1.086a.762.762,0,0,0,.816.831,1.213,1.213,0,0,0,1.182-.8l.04-.279v-.835Z" transform="translate(-295.633 -383.686)" fill="#3a392c"/><path d="M367.2,427.48l.945,2.694c.159.448.287.847.387,1.243h.031c.109-.4.248-.8.407-1.243l.933-2.694h.916l-1.889,4.811H368.1l-1.83-4.811h.935Z" transform="translate(-325.036 -384.3)" fill="#3a392c"/><path d="M404.722,429.422a1.53,1.53,0,0,0,1.64,1.659,3.076,3.076,0,0,0,1.332-.25l.16.629a3.971,3.971,0,0,1-1.609.306,2.242,2.242,0,0,1-2.365-2.425,2.344,2.344,0,0,1,2.265-2.591,2.029,2.029,0,0,1,1.978,2.264,2.165,2.165,0,0,1-.031.407h-3.369Zm2.553-.625a1.241,1.241,0,0,0-1.2-1.42,1.44,1.44,0,0,0-1.342,1.42Z" transform="translate(-357.118 -383.677)" fill="#3a392c"/><path d="M463.849,420.56a4.436,4.436,0,0,1-1.708.287,3.193,3.193,0,0,1-3.511-3.356,3.406,3.406,0,0,1,3.658-3.541,4.216,4.216,0,0,1,1.652.288l-.32,1.2a3.2,3.2,0,0,0-1.271-.247,2.2,2.2,0,0,0,.01,4.393,3.641,3.641,0,0,0,1.273-.22Z" transform="translate(-403.821 -372.759)" fill="#3a392c"/><path d="M504.01,412.121h1.511v2.793h.021a1.678,1.678,0,0,1,.6-.509,1.717,1.717,0,0,1,.783-.188c.964,0,1.7.666,1.7,2.139v2.829h-1.511v-2.672c0-.636-.219-1.074-.786-1.074a.8.8,0,0,0-.754.538l-.051.328v2.881H504.01V412.12Z" transform="translate(-442.53 -371.198)" fill="#3a392c"/><path d="M546.569,429.43c.051.625.666.923,1.373.923a4.075,4.075,0,0,0,1.343-.206l.2,1.023a4.626,4.626,0,0,1-1.759.306A2.33,2.33,0,0,1,545.13,429a2.439,2.439,0,0,1,2.455-2.594,2.154,2.154,0,0,1,2.165,2.425,3.4,3.4,0,0,1-.05.6h-3.131Zm1.781-1.035a.877.877,0,0,0-.848-.983,1,1,0,0,0-.942.983Z" transform="translate(-477.606 -383.387)" fill="#3a392c"/><path d="M585.878,428.052c0-.607-.019-1.116-.038-1.549h1.28l.06.666h.029a1.676,1.676,0,0,1,1.47-.777,1.372,1.372,0,0,1,1.332.835h.021a2.17,2.17,0,0,1,.636-.6,1.836,1.836,0,0,1,.926-.24c.93,0,1.639.656,1.639,2.109v2.859H591.76v-2.631c0-.707-.226-1.116-.714-1.116a.757.757,0,0,0-.707.526l-.047.379v2.841h-1.471v-2.724c0-.6-.218-1.023-.7-1.023a.776.776,0,0,0-.708.538l-.06.387v2.824h-1.47v-3.309Z" transform="translate(-512.333 -383.37)" fill="#3a392c"/><path d="M648.148,414.322a.811.811,0,1,1,.007,0Zm-.747.6h1.509v4.858H647.4Z" transform="translate(-564.81 -371.786)" fill="#3a392c"/><path d="M671.587,431.311a3.561,3.561,0,0,1-1.355.225,2.36,2.36,0,0,1-2.572-2.484,2.532,2.532,0,0,1,2.782-2.572,3.447,3.447,0,0,1,1.154.188l-.24,1.123a2.1,2.1,0,0,0-.845-.147,1.357,1.357,0,0,0,.029,2.713,2.069,2.069,0,0,0,.864-.162l.181,1.119Z" transform="translate(-582.126 -383.447)" fill="#3a392c"/><path d="M705.656,430.248a6.383,6.383,0,0,0,.079,1.173h-1.365l-.091-.487h-.028a1.751,1.751,0,0,1-1.395.6,1.492,1.492,0,0,1-1.576-1.495c0-1.266,1.136-1.864,2.86-1.864v-.059c0-.262-.141-.628-.889-.628a2.816,2.816,0,0,0-1.344.359l-.276-.967a3.992,3.992,0,0,1,1.893-.439,1.887,1.887,0,0,1,2.131,2.1Zm-1.464-1.126c-.8,0-1.417.188-1.417.767a.543.543,0,0,0,.6.576.84.84,0,0,0,.786-.557l.034-.259v-.528Z" transform="translate(-610.805 -383.413)" fill="#3a392c"/><path d="M742.65,419.216V412.13h1.514v7.086Z" transform="translate(-646.094 -371.206)" fill="#3a392c"/></svg>