<svg xmlns="http://www.w3.org/2000/svg" width="505.115" height="201.578" viewBox="0 0 505.115 201.578"><g transform="translate(13908.001 21889)"><g transform="translate(-13908 -21713.137)"><path d="M20.692,220.327v8.847H17.524v-1.027H13.9v1.027H10.731v-8.847h-3.8v10.788H22.661v2.969H6.935V235H3.71v-14.67H0v-3H3.71v-5.565l3.053.144c.628.028.657.171.657.256s-.028.172-.228.314c-.228.171-.257.286-.257.371v4.481h3.8v-6.793l3.025.2c.371.028.628.115.628.343,0,.113-.028.171-.228.313-.228.2-.257.315-.257.428v5.509h3.625v-5.794l3.11.143c.4.029.657.114.657.342,0,.086-.028.171-.257.343a.653.653,0,0,0-.342.484v4.481h3.882v3Zm-3.168,0H13.9v4.767h3.625Z" transform="translate(0 -210.052)" fill="#fff"/><path d="M61.223,229.2a22.694,22.694,0,0,1-4.995-2.456v8.305H52.975v-9.875h1.056a28.4,28.4,0,0,1-3.425-3.482,27.557,27.557,0,0,1-3.482,3.539l1.627.4c.2.057.284.171.284.286a.655.655,0,0,1-.114.314c-.057.085-.342.4-.4.485-.085.143-.142,2.228-.228,2.626-.6,3.4-2.454,4.823-5.051,6.251l-2.426-2.313c1.313-.513,4.537-1.8,4.537-5.594a10,10,0,0,0-.057-1.056,25.433,25.433,0,0,1-4.994,2.74l-2.312-2.512c4.11-1.256,6.108-2.512,8.534-5.166H40.931V211.043H60.71V221.69H54.859a11.237,11.237,0,0,0,3.624,2.91,20.156,20.156,0,0,0,5.023,1.855ZM49.207,213.527H43.985v1.6h5.223Zm0,3.766H43.985v2h5.223Zm8.42-3.766H52.6v1.6h5.023Zm0,3.766H52.6v2h5.023Z" transform="translate(-7.97 -210.159)" fill="#fff"/><path d="M92.061,232.573a4.3,4.3,0,0,1-3.254,1.112,19.923,19.923,0,0,1-2.141-.115l-.684-3.082a8.415,8.415,0,0,0,1.941.228,2.22,2.22,0,0,0,1.969-.8c1.284-1.6,1.512-5.194,1.512-6.563,0-2.2-.542-2.884-2.311-2.884a9.556,9.556,0,0,0-1.542.143c-1.456,5.851-2.826,9.276-5.422,13.215l-2.968-1.342a30.3,30.3,0,0,0,5.166-11.131,25.562,25.562,0,0,0-3.882,1.542l-1.057-3.425c2.17-.343,3.14-.543,5.48-1.056a34.19,34.19,0,0,0,.285-5.424l3.425.486c.371.058.685.2.685.428,0,.114-.028.142-.314.314-.343.228-.343.228-.4.6-.142,1.141-.2,1.655-.428,2.94a11.874,11.874,0,0,1,2.083-.2c3.853,0,4.2,3.395,4.2,5.935,0,4.109-1,7.792-2.34,9.077m5.309-6.451-1.513-2.711c1.028-.143,1.627-.285,1.627-.971,0-.713-1.084-3.053-4.11-6.563l2.311-1.6c1.313,1.571,5.195,6.164,5.195,9.19,0,2.169-2.454,2.511-3.51,2.654m2.483-9.133a12.746,12.746,0,0,0-2.255-2.511l1.542-1.142a17.593,17.593,0,0,1,2.2,2.426Zm2.911-1.684a11.34,11.34,0,0,0-2.026-2.453l1.483-1.086a12.923,12.923,0,0,1,2.227,2.4Z" transform="translate(-16.607 -210.31)" fill="#fff"/><path d="M127.21,233.041a18.278,18.278,0,0,1-3.567-4.451,16.558,16.558,0,0,1-4.853,6.592l-3.082-1.883c3.653-2.739,5.08-4.68,6.051-9.02h-5.194v-2.966H122.1a39.686,39.686,0,0,0,.057-4.568h-1.284a15.283,15.283,0,0,1-1.8,3.625l-3.054-1.169c1.17-1.828,2.284-3.882,3.254-8.734l3.168.771c.114.028.457.113.457.313,0,.171-.115.228-.286.315-.228.114-.371.2-.428.342a17.849,17.849,0,0,0-.456,1.769h6.878v2.768h-3.14c-.028,1.372-.057,2.656-.228,4.568h3.825v2.966h-4.11l-.058.258a12.8,12.8,0,0,0,4.538,6.135Zm10.247.8v-2.084H133v3.14h-3.083V213.377h10.646v20.463Zm0-17.581H133v12.615h4.452Z" transform="translate(-24.274 -210.037)" fill="#fff"/><path d="M164.39,234.8l-1.512-3.51a28.64,28.64,0,0,0,3.567.314c5.309,0,7.735-2.768,7.735-5.394,0-1.825-1.456-3-3.6-3-1.969,0-4.851,1.141-7.792,4.566l-2.483-1.313a55.768,55.768,0,0,1,2.226-10.9l3.282,1.284a36.578,36.578,0,0,0-1.712,6.281,10.974,10.974,0,0,1,7.022-2.884,6.16,6.16,0,0,1,6.336,6.251c0,8.049-9.533,8.22-13.072,8.305m6.364-18.037a27.1,27.1,0,0,0-6.593-3.111l1.227-2.825a33.9,33.9,0,0,1,6.821,2.94Z" transform="translate(-33.63 -210.113)" fill="#fff"/><path d="M204.648,217.811a69.593,69.593,0,0,1-5.279,12.244l-3.054-1.313a48.954,48.954,0,0,0,4.88-10.388c-1.313.17-2.112.256-3.453.341l-.428-2.968a37.82,37.82,0,0,0,4.852-.371,27.159,27.159,0,0,0,1.027-4.708l3.111.684c.143.028.685.172.685.485,0,.285-.485.457-.657.628-.028.028-.571,1.856-.684,2.225,1.683-.427,2.54-.713,3.282-.97v3.2c-.97.257-1.855.485-4.281.913m10.1,15.183a15.739,15.739,0,0,0-2.826-1.884c-.257,2.284-1.113,3.482-4.852,3.482a6.78,6.78,0,0,1-4.652-1.341,3.231,3.231,0,0,1-1.056-2.425c0-1.542,1.113-4.053,5.052-4.053a14.224,14.224,0,0,1,2.226.172c-.058-.657-.4-3.569-.4-4.168a4.307,4.307,0,0,1,1.227-2.91l2.968,1.6a2.614,2.614,0,0,0-1.084,2.284,28.288,28.288,0,0,0,.371,3.966,26.3,26.3,0,0,1,4.91,2.6Zm-8.448-3.625c-1.484,0-2.169.8-2.169,1.37,0,.627.8,1.284,2.369,1.284,2.311,0,2.283-1.2,2.283-2.226a9.567,9.567,0,0,0-2.483-.428m9.732-8.562a20.235,20.235,0,0,0-6.251-2.6l1.285-2.454a14.1,14.1,0,0,1,6.364,2.627Z" transform="translate(-41.184 -210.075)" fill="#fff"/><path d="M239.582,233.072a3.11,3.11,0,0,1-2.111-.944c-2-1.941-2.911-5.279-2.911-10.7a27.746,27.746,0,0,1,.857-7.419l3.14.857c.2.056.655.2.655.541,0,.314-.342.428-.827.6a29.615,29.615,0,0,0-.541,6.365c0,5.565,1.369,6.594,1.941,6.594,1.027,0,2.2-3.027,2.739-4.4l2.369,2.112c-1.57,3.369-3,6.394-5.309,6.394m14.471-5.082a26.541,26.541,0,0,0-4.2-11.587l2.94-1.427a24.266,24.266,0,0,1,4.681,12.13Z" transform="translate(-49.207 -210.78)" fill="#fff"/><path d="M292.449,220.327v8.847H289.28v-1.027h-3.625v1.027h-3.168v-8.847h-3.8v10.788h15.726v2.969H278.691V235h-3.225v-14.67h-3.71v-3h3.71v-5.565l3.053.144c.628.028.657.171.657.256s-.028.172-.228.314c-.229.171-.258.286-.258.371v4.481h3.8v-6.793l3.025.2c.371.028.628.115.628.343,0,.113-.028.171-.228.313-.228.2-.257.315-.257.428v5.509h3.625v-5.794l3.111.143c.4.029.656.114.656.342,0,.086-.028.171-.257.343a.652.652,0,0,0-.341.484v4.481h3.88v3Zm-3.169,0h-3.625v4.767h3.625Z" transform="translate(-57.011 -210.052)" fill="#fff"/><path d="M332.979,229.2a22.7,22.7,0,0,1-4.995-2.456v8.305h-3.253v-9.875h1.056a28.452,28.452,0,0,1-3.425-3.482,27.552,27.552,0,0,1-3.482,3.539l1.626.4c.2.057.286.171.286.286a.655.655,0,0,1-.115.314c-.057.085-.343.4-.4.485-.085.143-.142,2.228-.228,2.626-.6,3.4-2.454,4.823-5.052,6.251l-2.426-2.313c1.313-.513,4.537-1.8,4.537-5.594a10,10,0,0,0-.057-1.056,25.434,25.434,0,0,1-4.994,2.74l-2.312-2.512c4.11-1.256,6.108-2.512,8.534-5.166h-5.594V211.043h19.778V221.69h-5.851a11.234,11.234,0,0,0,3.625,2.91,20.141,20.141,0,0,0,5.023,1.855Zm-12.015-15.669h-5.223v1.6h5.223Zm0,3.766h-5.223v2h5.223Zm8.42-3.766h-5.023v1.6h5.023Zm0,3.766h-5.023v2h5.023Z" transform="translate(-64.98 -210.159)" fill="#fff"/><path d="M366.473,224.476c0,1.113.057,4.653.057,5.622h-3.31c.085-1.625.114-3.025.141-4.281-1.084.544-4.051,2.028-4.051,4.025,0,1.856,2.2,2.226,4.281,2.226a32.92,32.92,0,0,0,7.278-.913v3.226a47.3,47.3,0,0,1-6.793.428c-1.6,0-4.909,0-6.707-1.912a3.9,3.9,0,0,1-1.086-2.8c0-3.538,2.627-4.88,6.908-7.078a1.978,1.978,0,0,0-2.169-1.884c-2.8,0-4.51,2.6-6.08,5.167l-2.8-1.742a37.9,37.9,0,0,0,5.622-7.848c-1.625.085-2.511.114-3.709.114l-.343-2.968a40.128,40.128,0,0,0,5.452.115,22.213,22.213,0,0,0,1.427-3.8l3.567.627c.086.028.571.087.571.287,0,.17-.115.257-.285.313-.058.028-.628.285-.657.285-.028.028-.741,1.627-.884,1.941a24.13,24.13,0,0,0,5.594-1.454l-.2,3.2a60.522,60.522,0,0,1-6.821,1.084c-.914,1.682-1.143,2.082-1.628,2.826a5.506,5.506,0,0,1,2.455-.6,3.827,3.827,0,0,1,3.882,2.883c3.339-1.57,3.71-1.741,5.051-2.34l.971,3.254c-2.255.713-3.625,1.2-5.737,2" transform="translate(-73.875 -209.977)" fill="#fff"/><path d="M406.586,230.786a23.15,23.15,0,0,1-9.7,2.169l-1.456-3.738a22.9,22.9,0,0,0,2.8.141c4.881,0,10.161-2,10.161-6.536,0-3.6-3.082-4.68-5.251-4.68a28.71,28.71,0,0,0-6.337,1.284c-1.056.285-5.736,1.656-6.707,1.912l-1.541-3.6a57.83,57.83,0,0,0,7.335-1.369c3.425-.857,5.194-1.284,7.135-1.284,3.825,0,8.762,1.94,8.762,8.076,0,4.167-2.682,6.336-5.194,7.62" transform="translate(-81.512 -211.007)" fill="#fff"/><path d="M445.87,213.035c-.343.028-.428.115-1.17.857-.6.627-3.368,3.282-6.308,6.021-1.884,1.769-2.026,1.912-2.026,2.456a1.214,1.214,0,0,0,.485,1A58.479,58.479,0,0,1,446.5,232.9l-2.94,2.74a47.475,47.475,0,0,0-9.846-10.7,3.343,3.343,0,0,1-1.426-2.513c0-1.256,1.026-2.312,1.969-3.2a78.821,78.821,0,0,0,9.133-9.3l2.626,2.027c.057.057.6.485.6.771,0,.228-.085.228-.742.313" transform="translate(-90.687 -209.924)" fill="#fff"/><path d="M485.079,233.258c-3.311,0-3.311-3.967-3.311-4.68,0-1.085.514-6.394.514-7.592,0-.743-.143-1.912-1.113-1.912-1.627,0-3.825,2.741-5.822,5.194.028,3.968.028,6.935.2,10.275l-3.2.171.086-6.593c-.885,1.227-1.37,1.912-2.369,3.482l-2.968-2a32.677,32.677,0,0,0,5.422-6.564l.058-2.511c-1.513.541-2.284.827-3.712,1.285l-1.4-3.084a23.157,23.157,0,0,0,5.136-1.369l.114-6.137,2.827.315c.456.056.713.085.713.341,0,.087-.428.457-.513.543a19.978,19.978,0,0,0-.286,3.767l1.827,1.741-.628,1.256c1.114-1.026,3.825-3.566,5.736-3.566a3.251,3.251,0,0,1,3.14,3.425c0,.513-.029.828-.4,4.651a39.485,39.485,0,0,0-.284,4.024c0,1.57.284,1.884,1.056,1.884.8,0,1.884-.512,3.053-2.169l.885,3.2c-1.312,1.4-2.882,2.624-4.765,2.624" transform="translate(-97.991 -210.197)" fill="#fff"/></g><g transform="translate(-13906.789 -21889)"><path d="M47.926,22.53,33.821,51.039H26.88L12.849,22.53V55.368H1.207V3.2H16.954L30.388,31.859,43.9,3.2H59.569V55.368H47.926Z" transform="translate(-1.207 0.009)" fill="#fff"/><path d="M109.468,55.334H98.945V50.483a13.188,13.188,0,0,1-10.71,5.448,15.924,15.924,0,0,1-10.709-3.694A12.3,12.3,0,0,1,73.2,42.385q0-6.158,4.478-9.218t12.24-3.059h8.359v-.225q0-6.418-6.792-6.419a18.351,18.351,0,0,0-6.156,1.157A20.017,20.017,0,0,0,79.839,27.5l-5-7.24A29.948,29.948,0,0,1,92.9,14.51q7.313,0,11.942,3.657t4.627,11.568ZM98.2,40.034V38.093H91.184q-6.718,0-6.717,4.179a3.841,3.841,0,0,0,1.6,3.321,7.765,7.765,0,0,0,4.59,1.156,8.156,8.156,0,0,0,5.261-1.827A5.951,5.951,0,0,0,98.2,40.034" transform="translate(-0.991 0.043)" fill="#fff"/><path d="M135.116,55.378H123.922V0h11.194V28.435L147.581,15.15h14.105l-15.3,16.27,15.9,23.958H149L138.773,40l-3.657,3.805Z" transform="translate(-0.839 0)" fill="#fff"/><path d="M205.093,49.513a22.446,22.446,0,0,1-15.934,6.418q-9.144,0-15.113-5.634t-5.971-15.114q0-9.477,6.083-15.075a20.509,20.509,0,0,1,14.366-5.6,20.777,20.777,0,0,1,14.069,5q5.782,5,5.783,13.733v5.971H179.121a7.98,7.98,0,0,0,3.433,5.373,10.982,10.982,0,0,0,6.568,2.089,12.88,12.88,0,0,0,9.7-3.955ZM194.346,25.7a8.481,8.481,0,0,0-5.635-1.941,10.088,10.088,0,0,0-6.082,2.015,7.712,7.712,0,0,0-3.21,5.449h17.614a7.956,7.956,0,0,0-2.687-5.524" transform="translate(-0.706 0.043)" fill="#fff"/><path d="M264.5,33.2l9.255-30h12.163l9.181,30,10.375-30H318.09L299.879,55.368h-8.657L279.8,19.1,268.458,55.368H259.8L241.592,3.2H254.2Z" transform="translate(-0.486 0.009)" fill="#fff"/><path d="M359.294,55.334H348.772V50.483a13.189,13.189,0,0,1-10.71,5.448,15.92,15.92,0,0,1-10.708-3.694,12.3,12.3,0,0,1-4.331-9.851q0-6.158,4.478-9.218t12.24-3.059H348.1v-.225q0-6.418-6.79-6.419a18.358,18.358,0,0,0-6.158,1.157,20.025,20.025,0,0,0-5.485,2.874l-5-7.24a29.953,29.953,0,0,1,18.062-5.746q7.31,0,11.94,3.657t4.627,11.568Zm-11.268-15.3V38.093h-7.016q-6.716,0-6.716,4.179a3.844,3.844,0,0,0,1.6,3.321,7.773,7.773,0,0,0,4.59,1.156,8.153,8.153,0,0,0,5.262-1.827,5.952,5.952,0,0,0,2.278-4.889" transform="translate(-0.242 0.043)" fill="#fff"/><path d="M383.009,55.332l-15.9-40.227h11.644l10,25.3,10-25.3H410.4L394.5,55.332Z" transform="translate(-0.11 0.045)" fill="#fff"/><path d="M453.33,49.513a22.454,22.454,0,0,1-15.936,6.418q-9.141,0-15.111-5.634t-5.971-15.114q0-9.477,6.081-15.075a20.51,20.51,0,0,1,14.367-5.6,20.779,20.779,0,0,1,14.069,5q5.78,5,5.782,13.733v5.971H427.356a7.994,7.994,0,0,0,3.433,5.373,10.988,10.988,0,0,0,6.568,2.089,12.879,12.879,0,0,0,9.7-3.955ZM442.582,25.7a8.477,8.477,0,0,0-5.634-1.941,10.093,10.093,0,0,0-6.084,2.015,7.708,7.708,0,0,0-3.209,5.449H445.27a7.957,7.957,0,0,0-2.688-5.524" transform="translate(0.038 0.043)" fill="#fff"/><path d="M469.157,54.353a5.708,5.708,0,0,1-2.612-4.85,6.43,6.43,0,0,1,2.013-4.888,6.815,6.815,0,0,1,4.851-1.9,7.026,7.026,0,0,1,4.889,1.866,5.726,5.726,0,0,1,2.052,4.365,12.049,12.049,0,0,1-2.163,6.009l-4.478,7.687h-7.388Z" transform="translate(0.188 0.128)" fill="#fff"/><path d="M47.926,114.656l-14.105,28.51H26.88l-14.031-28.51v32.838H1.207V95.326H16.954l13.434,28.659L43.9,95.326H59.569v52.168H47.926Z" transform="translate(-1.207 -9.472)" fill="#fff"/><path d="M109.468,147.46H98.945v-4.85a13.191,13.191,0,0,1-10.71,5.448,15.925,15.925,0,0,1-10.709-3.7,12.3,12.3,0,0,1-4.329-9.851q0-6.158,4.478-9.218t12.24-3.058h8.359v-.226q0-6.418-6.792-6.418a18.351,18.351,0,0,0-6.156,1.157,19.988,19.988,0,0,0-5.486,2.873l-5-7.24A29.948,29.948,0,0,1,92.9,106.636q7.313,0,11.942,3.657t4.627,11.568ZM98.2,132.16v-1.941H91.184q-6.718,0-6.717,4.179a3.842,3.842,0,0,0,1.6,3.322,7.758,7.758,0,0,0,4.59,1.156,8.157,8.157,0,0,0,5.261-1.828A5.95,5.95,0,0,0,98.2,132.16" transform="translate(-0.991 -9.438)" fill="#fff"/><path d="M135.116,147.5H123.922V92.126h11.194v28.436l12.464-13.284h14.105l-15.3,16.268,15.9,23.958H149L138.773,132.13l-3.657,3.806Z" transform="translate(-0.839 -9.482)" fill="#fff"/><path d="M205.093,141.639a22.447,22.447,0,0,1-15.934,6.419q-9.144,0-15.113-5.635t-5.971-15.114q0-9.477,6.083-15.075a20.509,20.509,0,0,1,14.366-5.6,20.782,20.782,0,0,1,14.069,5q5.782,5,5.783,13.733v5.971H179.121a7.978,7.978,0,0,0,3.433,5.373,10.975,10.975,0,0,0,6.568,2.089,12.88,12.88,0,0,0,9.7-3.955ZM194.346,117.83a8.481,8.481,0,0,0-5.635-1.941,10.082,10.082,0,0,0-6.082,2.016,7.708,7.708,0,0,0-3.21,5.448h17.614a7.958,7.958,0,0,0-2.687-5.524" transform="translate(-0.706 -9.438)" fill="#fff"/><path d="M264.5,125.328l9.255-30h12.163l9.181,30,10.375-30H318.09l-18.211,52.169h-8.657L279.8,111.223l-11.345,36.271H259.8l-18.21-52.169H254.2Z" transform="translate(-0.486 -9.472)" fill="#fff"/><path d="M364.74,127.384a19.848,19.848,0,0,1-6.047,14.7,22.3,22.3,0,0,1-30.375,0,20.949,20.949,0,0,1,0-29.442,22.2,22.2,0,0,1,30.375,0,19.97,19.97,0,0,1,6.047,14.739m-31.2,0a11.512,11.512,0,0,0,2.8,8.023,9.833,9.833,0,0,0,14.329,0,11.508,11.508,0,0,0,2.8-8.023,11.65,11.65,0,0,0-2.8-8.06,9.755,9.755,0,0,0-14.329,0,11.655,11.655,0,0,0-2.8,8.06" transform="translate(-0.244 -9.438)" fill="#fff"/><path d="M398.2,117.159q-5,0-7.461,3.545t-2.464,9.367V147.46h-11.2V107.308h11.2v5.3a18.84,18.84,0,0,1,5.41-4.179,14.715,14.715,0,0,1,6.606-1.791l.074,10.523Z" transform="translate(-0.08 -9.438)" fill="#fff"/><rect width="11.194" height="55.378" transform="translate(411.192 82.645)" fill="#fff"/><path d="M453.428,148.1q-7.127,0-12.723-6.045a21.239,21.239,0,0,1-5.6-15q0-8.955,5.446-14.665a17.1,17.1,0,0,1,12.764-5.71,15.318,15.318,0,0,1,11.94,5.15v-19.7h11.194V147.5H465.257v-5.3a14.527,14.527,0,0,1-11.829,5.9m-7.053-20.6a11.144,11.144,0,0,0,2.911,7.948,9.052,9.052,0,0,0,6.793,3.1,8.488,8.488,0,0,0,6.6-3.1,11.652,11.652,0,0,0,2.724-7.985,12.229,12.229,0,0,0-2.724-8.134A8.406,8.406,0,0,0,456,116.084a8.693,8.693,0,0,0-6.793,3.284,12,12,0,0,0-2.837,8.135" transform="translate(0.094 -9.482)" fill="#fff"/><path d="M492.413,146.07a6.667,6.667,0,1,1,4.664,1.9,6.344,6.344,0,0,1-4.664-1.9" transform="translate(0.26 -9.354)" fill="#fff"/></g></g></svg>